<?xml version="1.0" encoding="utf-8" ?>
<svg xmlns="http://www.w3.org/2000/svg" xmlns:xlink="http://www.w3.org/1999/xlink" width="426" height="426">
	<path transform="scale(0.416202 0.416202)" d="M509.882 33.2335C540.079 33.5687 569.67 35.9225 599.406 41.4413C693.493 58.9025 781.692 105.679 849.24 173.46C880.3 204.628 906.831 239.767 928.53 278.018L940.97 300.725C973.036 365.853 989.167 439.553 989.012 512.058C988.745 637.722 939.111 763.27 849.615 852.155C785.502 915.83 702.194 960.578 614 979.947C598.59 983.331 583.149 985.655 567.5 987.598C549.557 989.825 531.218 991.436 513.125 991.37L496.186 991.365C477.849 991.29 459.653 989.428 441.5 986.985C361.078 976.159 283.965 943.669 219.698 894.188C198.77 878.075 180.212 860.122 161.66 841.409L156.022 841.547C147.566 831.781 140.112 821.512 132.542 811.082C71.5185 727.011 34.9447 625.228 32.6536 521.078C30.4887 422.668 59.1589 326.012 114.023 244.315C128.39 222.922 144.421 202.079 162.282 183.467C180.894 164.073 200.613 145.97 222.05 129.702C279.982 85.7406 349.261 54.4218 420.872 41.3851C450.335 36.0213 479.987 33.8455 509.882 33.2335Z"/>
	<path fill="#4AB1AC" transform="scale(0.416202 0.416202)" d="M710.607 709.367C713.657 709.659 716.456 710.204 719.424 710.928L719.484 716.92C716.335 716.341 713.34 716.042 710.141 715.938L710.607 709.367Z"/>
	<path fill="#F4883B" transform="scale(0.416202 0.416202)" d="M262.695 573.396C260.743 577.226 257.34 580.973 254.686 584.403C250.779 589.45 246.991 594.879 242.5 599.419L241.972 599.25L240.956 597.057L236.971 583.931L262.695 573.396Z"/>
	<path fill="#10909A" transform="scale(0.416202 0.416202)" d="M187.786 328.117L190.75 327.809C191.345 329.577 190.472 331.741 190.023 333.534C188.848 338.232 187.784 342.941 186.097 347.488L175.865 342.822C171.703 340.937 169.161 338.874 165.988 335.682C172.532 331.325 180.232 329.747 187.786 328.117Z"/>
	<path fill="#F4883B" transform="scale(0.416202 0.416202)" d="M588.672 570.75C588.961 571.591 588.713 571.833 588.456 572.696C584.91 584.574 581.613 596.282 579.699 608.566L576.843 632.956L576.25 633.165L574.294 630.754L570.855 625.763C572.298 614.506 573.839 603.552 576.48 592.5C577.395 588.67 578.118 584.405 580.003 580.904C582.058 577.09 585.547 573.696 588.672 570.75Z"/>
	<path fill="#10909A" transform="scale(0.416202 0.416202)" d="M188.154 318.591L188.818 318.322C195.573 315.483 201.407 309.529 207.332 305.235C211.383 302.299 215.924 300.087 220.472 298.04L214.086 320.131C211.536 321.062 208.168 321.158 205.462 321.58L187.347 324.496L188.154 318.591Z"/>
	<path fill="#10909A" transform="scale(0.416202 0.416202)" d="M542.114 561.25C543.187 561.139 543.876 561.231 544.75 561.938C545.854 562.831 546.835 564.704 547.718 565.875C551.688 571.133 556.22 575.707 562.786 577.488L563.49 577.67C570.027 579.411 575.625 577.47 581.74 575.237C577.947 578.321 574.043 580.652 569.738 582.955L568.016 583.831C555.897 589.205 549.419 581.201 539.989 575.25C537.371 573.598 534.401 572.522 531.517 571.44L532.914 569.011C535.171 565.202 537.701 562.352 542.114 561.25Z"/>
	<path fill="#10909A" transform="scale(0.416202 0.416202)" d="M710.607 709.367L713.319 680.75L713.428 679.985C714.042 676.208 715.989 672.537 717.32 668.951L721.813 654.828L729.415 622C729.712 620.619 729.752 618.131 730.409 616.956C730.496 616.798 730.655 616.692 730.778 616.56L719.424 710.928C716.456 710.204 713.657 709.659 710.607 709.367Z"/>
	<path fill="#F4883B" transform="scale(0.416202 0.416202)" d="M457.625 447.75L457.795 447.828C460.776 450.104 463.389 454.539 465.261 457.717C470.777 467.078 474.997 477.581 478.52 487.833C480.361 493.191 482.434 499.051 483.192 504.666L479.674 508.754L474.473 511.949L459.314 463.479C457.624 458.369 454.985 453.003 457.625 447.75Z"/>
	<path fill="#F4883B" transform="scale(0.416202 0.416202)" d="M531.621 579.746C537.25 583.962 542.301 588.535 549.231 590.406C559.249 593.11 569.01 587.814 577.327 582.872L571.053 608.531L569.239 624.1L553.44 605.87C545.788 597.478 537.325 589.692 531.621 579.746Z"/>
	<path fill="#F4883B" transform="scale(0.416202 0.416202)" d="M585.067 712.38C594.528 726.217 606.167 737.342 622.778 741.859C641.924 747.065 659.321 741.679 676.008 732.165C674.209 734.317 671.896 736.079 669.774 737.906C668.786 738.828 667.638 739.601 666.542 740.389C654.137 749.301 638.863 753.424 623.69 750.758C604.405 747.369 592.75 733.781 582.143 718.522L585.067 712.38Z"/>
	<path fill="#10909A" transform="scale(0.416202 0.416202)" d="M351.169 762.25L352.25 762.567C351.805 769.489 348.86 777.194 346.724 783.796L317.25 790.589L315.815 790.421C315.062 788.558 316.165 785.219 316.483 783.25L318.681 769.174L351.169 762.25Z"/>
	<path fill="#F4883B" transform="scale(0.416202 0.416202)" d="M296.585 552.25L297.342 552.48L259.144 600.573L251.598 611.085C250.475 612.67 249.346 614.761 247.5 615.423L246.455 613.901L242.75 602.492C248.89 596.735 253.526 588.733 258.706 582.068C262.264 577.491 265.864 572.674 270.569 569.216C274.181 566.561 278.257 564.675 281.981 562.201L296.585 552.25Z"/>
	<path fill="#10909A" transform="scale(0.416202 0.416202)" d="M708.187 458.75L708.702 458.82L709.016 459.5L701.504 470.117C700.678 471.244 699.32 473.478 698.229 474.26C695.949 475.895 688.808 476.647 685.834 477.399L644.75 487.967L643.554 487.48C648.972 480.184 655.049 473.747 659.442 465.693C676.158 465.87 692.076 462.924 708.187 458.75Z"/>
	<path fill="#F4883B" transform="scale(0.416202 0.416202)" d="M846.067 467.75L846.674 468.516L838.8 550.565C837.642 548.946 836.883 546.8 836.036 544.988L830.945 534.678C830.281 533.294 829.29 531.806 829.427 530.224L833.085 474.477L846.067 467.75Z"/>
	<path fill="#10909A" transform="scale(0.416202 0.416202)" d="M880.867 671.632C881.957 671.474 882.679 671.419 883.75 671.693C883.437 673.995 881.7 676.699 880.657 678.814L873.438 693.373L834.882 697.627C833.363 697.836 831.909 698.167 830.402 697.75L841.115 677.554L880.867 671.632Z"/>
	<path fill="#10909A" transform="scale(0.416202 0.416202)" d="M219.272 662.544L239.638 710.496L229.441 725.887L225.336 732.766C222.562 726.871 221.202 720.558 218.879 714.509C217.619 711.228 214.835 707.281 214.508 703.817C214.223 700.803 215.475 696.79 215.827 693.707L219.272 662.544Z"/>
	<path fill="#10909A" transform="scale(0.416202 0.416202)" d="M541.99 480.7L548.01 480.342L536.593 499.972L494.383 504.109L487.64 504.631L501.242 485.976C501.489 485.678 502.366 484.433 502.706 484.265C504.09 483.584 508.982 483.671 510.75 483.509L541.99 480.7Z"/>
	<path fill="#10909A" transform="scale(0.416202 0.416202)" d="M579.705 707.75L580.386 708.023L580.086 708.902C578.557 713.023 574.783 716.793 572.081 720.178C560.556 734.613 548.347 748.582 531.124 756.301C514.784 763.625 497.804 762.932 481.322 756.409C475.877 754.254 469.541 751.422 467.117 745.742C467.951 741.905 466.106 738.352 464.562 734.913L469.224 739.217C480.061 748.644 496.356 752.711 510.501 751.576C539.93 749.214 561.477 728.983 579.705 707.75Z"/>
	<path fill="#F5AE3B" transform="scale(0.416202 0.416202)" d="M719.484 716.92L721.223 717.233C721.694 718.576 722.12 719.562 722.937 720.75C724.617 721.206 726.494 720.657 728.182 720.392L739.75 718.535L780.92 712.263C781.08 716.521 781.168 720.549 780.288 724.736C779.15 725.61 777.208 725.628 775.777 725.838L762.956 727.589L707.073 735.21L710.141 715.938C713.34 716.042 716.335 716.341 719.484 716.92Z"/>
	<path fill="#10909A" transform="scale(0.416202 0.416202)" d="M778.902 691.188C780.248 691.001 780.961 690.748 782.241 691.25L780.321 709.145C775.206 711.082 768.343 711.179 762.852 711.96L728.559 717.07C727.397 717.175 726.707 717.271 725.641 716.75L730.151 698.979L778.902 691.188Z"/>
	<path fill="#10909A" transform="scale(0.416202 0.416202)" d="M436.079 491.195C437.596 491.065 441.317 490.288 442.547 490.914L427.943 512.483C413.072 512.399 397.989 514.97 383.219 516.686L375.841 517.496L389.771 496.2L436.079 491.195Z"/>
	<path fill="#10909A" transform="scale(0.416202 0.416202)" d="M274.883 667.077L265.309 726.823L229.75 735.113C229.516 735.041 229.32 734.879 229.112 734.75L274.883 667.077Z"/>
	<path fill="#10909A" transform="scale(0.416202 0.416202)" d="M597.551 470.697L601 470.586L601.49 471.25L594.593 484.879C593.325 487.353 592.08 490.339 590.306 492.491C589.474 493.499 588.502 494.106 587.25 494.465C582.58 495.801 577.159 495.871 572.306 496.417L546.622 499.415L541.162 499.757L555.772 474.656L597.551 470.697Z"/>
	<path fill="#F4883B" transform="scale(0.416202 0.416202)" d="M682.465 240.006C681.453 240.443 680.535 241.019 679.594 241.588C677.72 244.535 677.487 249.465 676.833 252.934L673.471 269.297L661.865 324.754C659.16 320.108 655.84 314.987 654.025 309.925L653.75 309.112C652.421 305.315 653.187 300.693 653.627 296.73L657.314 271.95C658.254 266.244 658.841 260.421 660.21 254.8C660.988 251.603 662.026 248.664 663.376 245.668C668.99 241.626 675.725 240.556 682.407 239.609L682.465 240.006Z"/>
	<path fill="#F4883B" transform="scale(0.416202 0.416202)" d="M187.347 324.496C180.334 325.472 173.848 328.24 167.407 331.018L176.994 285.703C177.518 283.234 178.127 276.434 179.465 274.835C181.204 272.757 185.204 270.571 187.42 268.743L202.364 255.422L188.154 318.591L187.347 324.496Z"/>
	<path fill="#10909A" transform="scale(0.416202 0.416202)" d="M311.347 770.563C312.158 770.491 312.774 770.612 313.571 770.75C314.13 777.39 312.026 785.221 311.354 791.946L258.639 803.916C257.98 804.024 257.41 803.926 256.75 803.856C256.335 802.006 257.045 799.477 257.348 797.616L260.042 782.996L311.347 770.563Z"/>
	<path fill="#10909A" transform="scale(0.416202 0.416202)" d="M199.153 776.25C200.269 776.192 199.739 776.052 200.718 776.75L197.157 798.982L149.195 811.059L146.627 808.168L142.244 802.3C140.929 800.243 143.614 791.673 144.208 788.748L199.153 776.25Z"/>
	<path fill="#10909A" transform="scale(0.416202 0.416202)" d="M485.817 433.237C486.977 433.021 486.896 433.124 487.907 433.545C490.982 438.839 492.057 447.034 493.53 453.001C495.505 461.007 498.045 469.227 499.271 477.366C499.421 478.359 499.846 480.01 499.743 480.978C499.637 481.981 497.265 484.865 496.609 485.832L486.885 500.181C485.469 496.959 485.011 492.589 484.211 489.122C481.171 476.377 475.283 461.755 467.798 450.981C465.273 447.346 462.23 444.119 459.25 440.859C459.031 439.198 459.277 438.116 459.75 436.52C462.484 434.767 466.736 434.938 469.919 434.664L485.817 433.237Z"/>
	<path fill="#10909A" transform="scale(0.416202 0.416202)" d="M596.506 677.375C598.86 684.797 601.214 692.095 604.936 698.972C611.008 710.19 622.32 718.83 634.478 722.296C651.292 727.089 668.586 722.861 683.372 714.18C687.859 711.545 691.956 708.114 696.432 705.611L687.517 717.596C678.065 727.663 668.173 733.424 654.261 734.587C644.679 735.388 635.383 734.405 626.132 731.804C607.549 726.579 596.602 709.367 587.582 693.64C587.554 691.361 594.886 680.155 596.506 677.375Z"/>
	<path fill="#10909A" transform="scale(0.416202 0.416202)" d="M638.215 507.25L638.266 507.428C638.003 508.887 636.617 509.921 635.647 510.975C631.96 514.984 629.091 519.78 626.25 524.413C610.951 549.363 603.533 578.225 598.518 606.779C596.805 616.535 595.056 626.379 594.332 636.269C593.658 645.456 594.066 654.643 594.473 663.832L590.291 654.774L583.787 643.795C582.631 641.855 581.263 640.366 581.432 638.03C584.872 590.241 600.467 539.129 638.215 507.25Z"/>
	<path fill="#F4883B" transform="scale(0.416202 0.416202)" d="M275.045 318.958C280.127 320.807 284.5 323.301 288.396 327.074C302.935 341.152 305.983 361.099 306.209 380.501C306.612 415.011 295.646 448.456 271.334 473.445L266.2 478.027C267.621 474.886 270.018 471.997 271.84 469.044C274.975 463.962 277.788 458.669 280.358 453.281C293.533 425.672 299.415 388.93 293.735 358.702C291.244 345.451 284.081 335.559 273.037 327.973L275.045 318.958Z"/>
	<path fill="#F4883B" transform="scale(0.416202 0.416202)" d="M787.925 640.034C792.529 645.034 796.037 651.367 799.585 657.145L815.864 684.314C819.411 690.582 822.452 697.133 826.32 703.215L872.121 697.281L866.64 709.365L835.385 713.544L834.68 713.666C831.197 714.252 827.602 714.507 824.087 714.878C823.855 714.902 822.061 715.137 821.986 715.098C821.62 714.906 820.039 711.799 819.736 711.273C815.146 703.322 811.306 694.908 806.439 687.119C804.806 684.505 803.027 681.293 800.5 679.487L799.631 680.081C799.326 682.262 799.714 683.74 800.409 685.768L800.662 686.493L784.609 716.906C784.36 710.078 784.01 702.675 785.302 695.958C785.983 692.416 787.749 688.975 788.233 685.492C788.948 680.348 788.465 674.642 788.4 669.433L787.925 640.034Z"/>
	<path fill="#10909A" transform="scale(0.416202 0.416202)" d="M789.043 594.275C791.878 597.235 794.33 600.957 796.865 604.197C813.48 625.431 825.998 648.755 837.994 672.817L830.306 687.308L826.859 693.928L800.628 650.496L794.385 641.092C792.686 638.787 789.067 635.132 788.286 632.417C787.719 630.446 788.365 626.628 788.395 624.472L789.043 594.275Z"/>
	<path fill="#10909A" transform="scale(0.416202 0.416202)" d="M279.175 287.737C284.761 288.554 290.65 290.688 295.75 293.077C309.246 299.399 317.172 313.593 322.07 327.026C327.857 342.899 327.36 360.421 324.79 376.873C322.464 391.761 318.586 405.683 312.214 419.352L307.871 426.388L313.002 405.148C316.302 388.79 316.149 371.01 312.56 354.75C310.746 346.531 307.866 337.802 303.139 330.756C297.249 321.976 288.474 314.308 277.85 312.291L277.092 312.151C279.149 303.788 279.696 296.344 279.175 287.737Z"/>
	<path fill="#10909A" transform="scale(0.416202 0.416202)" d="M460.699 574.668C464.273 579.683 467.255 585.279 470.732 590.405C478.447 601.78 487.045 612.454 496.373 622.548C500.535 627.052 504.948 631.468 509.52 635.558C515.868 641.238 522.467 646.566 527.558 653.462C530.451 657.382 532.888 661.489 532.008 666.541C530.75 673.761 525.94 677.979 520.272 682.059L514.235 684.524L514.997 680.884C515.849 676.467 516.381 670.948 514.181 666.877C511.765 662.408 507.219 658.574 503.656 654.958L486.59 637.269C473.707 622.989 461.981 608.24 451.178 592.315L460.699 574.668Z"/>
	<path fill="#F4883B" transform="scale(0.416202 0.416202)" d="M213.298 711.422C218.667 719.898 218.725 731.05 224.236 739.234L253.195 734.135L251.932 751.844C241.135 753.268 228.891 755.672 218.233 752.446L217.46 752.207L208.763 814.517C206.914 815.524 204.541 815.872 202.5 816.396L190.183 819.645L160.289 828.31L150.916 814.277L200.348 802.279L213.298 711.422Z"/>
	<path fill="#10909A" transform="scale(0.416202 0.416202)" d="M609.205 364.75C610.18 365.166 615.967 380.44 616.938 382.66L655.913 465.335C653.774 470.313 649.062 475.145 645.662 479.399L639.399 487.805C627.412 467.972 618.929 446.826 611.363 424.986C609.703 420.195 607.277 415.153 606.72 410.08C606.272 406.007 607.085 401.471 607.282 397.363C607.8 386.568 607.961 375.476 609.205 364.75Z"/>
	<path fill="#F4883B" transform="scale(0.416202 0.416202)" d="M582.698 711.25L582.827 712.016C571.355 731.642 556.825 749.263 537.807 762.026C521.101 773.239 498.365 781.09 478.113 776.928C474.406 776.167 469.607 775.075 467.486 771.745L467.205 771.282C463.385 771.176 462.317 776.759 459.614 778.735C459.095 779.115 457.71 779.35 457.059 779.531C450.022 781.49 442.603 782.687 435.457 784.29L380.669 796.549L371.631 733.982L369.698 723.355C376.707 735.532 382.339 747.425 385.516 761.174L387.634 772.04C388.167 775.332 388.338 779.621 390.75 782.107C392.445 782.92 393.914 782.826 395.75 782.506C398.705 781.99 401.688 780.801 404.595 780.018L418.518 776.694L471.575 766.756C471.549 763.061 470.95 759.697 470.188 756.088C481.448 762.368 494.121 767.784 507.377 766.061C531.255 762.955 550.353 750.449 566.003 732.684C571.947 725.937 577.196 718.374 582.698 711.25Z"/>
	<path fill="#10909A" transform="scale(0.416202 0.416202)" d="M374.353 700.624L396.852 704.381L405.503 749.5C406.151 752.903 406.702 757.9 409.75 759.979C410.72 759.972 413.442 760.249 414.25 759.948C414.863 759.719 415.613 757.945 416.25 757.55C416.805 757.207 418.514 757.008 419.196 756.857L463.984 747.997L467.395 763C466.424 764.122 465.286 764.176 463.892 764.586L397.368 777.924C396.248 775.112 395.997 771.553 395.504 768.568C394.558 762.839 393.615 757.032 391.869 751.483C387.687 738.194 378.407 727.529 371.927 715.395C370.018 711.82 373.235 704.281 374.353 700.624Z"/>
	<path fill="#10909A" transform="scale(0.416202 0.416202)" d="M761.241 759.716C768.846 749.889 776.787 739.501 783.415 729.003L794.561 709.769C796.226 706.814 797.856 703.812 799.209 700.699C800.561 697.59 801.55 694.322 803.393 691.457L819.822 719.039C823.575 719.458 828.899 718.094 832.743 717.622L864.214 713.787L861.282 717.657C857.652 722.41 851.758 726.422 846.854 729.853C826.311 744.229 802.677 756.432 777.502 759.663C772.395 760.318 766.367 760.245 761.241 759.716Z"/>
	<path fill="#F4883B" transform="scale(0.416202 0.416202)" d="M452.335 266.607L454.5 266.318L454.937 266.75L452.25 267.928C450.657 268.661 450.799 268.547 450.239 270.23L395.503 440.08L380.902 485.42L372.358 511.416L371.5 510.75L366.786 495.978L373.684 469.903C374.819 465.55 375.389 460.808 376.963 456.606C378.785 451.745 381.458 447.219 383.632 442.51C387.731 433.634 391.328 424.374 394.157 415.018C396.977 405.692 399.304 396.102 400.75 386.462C401.478 381.612 401.332 376.371 402.535 371.646C403.237 368.886 404.635 366.289 405.695 363.654L409.463 353.042L430.407 288.093C431.651 283.686 432.51 278.497 435.051 274.614C438.511 269.329 446.591 267.759 452.335 266.607Z"/>
	<path fill="#F4883B" transform="scale(0.416202 0.416202)" d="M583.143 255.25L584.974 255.228C583.346 256.444 580.11 256.773 578.137 257.298L546.189 453.976L543.956 447.099L534.84 415.75C534.365 413.486 534.217 411.306 534.472 409L538.719 382.299L545.032 340.524L552.661 291.832C553.943 283.938 554.893 275.729 556.652 267.948C557.008 266.371 557.556 264.773 558.512 263.452C562.287 258.234 576.82 256.105 583.143 255.25Z"/>
	<path fill="#10909A" transform="scale(0.416202 0.416202)" d="M362.201 477.25L362.847 477.344C361.541 482.145 356.352 487.431 353.345 491.399C332.306 519.164 306.629 543.953 276.268 561.416C266.09 567.271 255.588 572.741 244.622 576.974C224.039 584.92 202.033 589.93 180.638 595.2L161.799 599.375C156.546 600.502 149.009 602.393 143.75 600.969L142.857 600.284C142.241 599.255 142.078 598.734 142.03 597.504C141.981 596.216 141.9 593.324 142.75 592.346C143.789 591.152 147.112 590.31 148.578 589.767C153.064 588.108 157.503 586.397 161.83 584.35C168.56 581.167 175.109 577.546 181.984 574.672C202.913 565.923 225.08 559.809 246.506 552.374C291.532 536.75 330.372 512.856 362.201 477.25Z"/>
	<path fill="#F4883B" transform="scale(0.416202 0.416202)" d="M272.489 330.779C276.817 332.878 280.302 335.669 283.098 339.61C297.15 359.414 294.403 388.781 290.776 411.521C285.522 444.464 272.112 473.327 244.659 493.284C240.069 496.039 235.249 498.651 230.129 500.267L272.489 330.779Z"/>
	<path fill="#F4883B" transform="scale(0.416202 0.416202)" d="M207.283 325.192L209.5 324.959C209.65 325.139 209.904 325.27 209.95 325.5C210.183 326.657 208.719 330.832 208.389 332.094L202.107 355.834L150.413 551.69C149.212 556.265 140.038 588.234 140.424 590C140.541 590.533 140.862 591 141.081 591.5L140.521 592.054C138.881 593.817 138.812 597.261 139.064 599.5C139.276 601.378 140.335 603.086 141.936 604.119C146.518 607.073 164.924 602.824 170.694 601.534L149.559 697.734L134.529 770.58L131.792 782.819C131.331 784.678 131.003 786.723 130 788.363L129.111 787.621L119.516 775.56C119.347 775.3 119.115 775.071 119.01 774.779C118.19 772.5 150.46 625.591 153.682 610.313L136.116 612.708C131.917 609.701 128.266 605.71 124.703 601.994L196.133 326.669L207.283 325.192Z"/>
	<path fill="#B8C7B5" transform="scale(0.416202 0.416202)" d="M413.278 533.692C416.369 533.179 419.817 533.344 422.962 533.246C423.159 572.597 433.117 611.331 441.987 649.424L463.996 744.298L414.24 754.284L401.335 688.781L374.25 692.821C372.544 693.363 372.014 695.479 371.284 696.988L354.045 755.839L320.26 762.497C320.783 756.599 322.749 750.51 324.083 744.731L331.174 713.15C338.436 681.283 345.133 649.256 354.679 617.963C362.917 590.96 373.801 563.725 386.754 538.627C394.802 535.415 404.709 534.638 413.278 533.692Z"/>
	<path transform="scale(0.416202 0.416202)" d="M397.531 604.75C398.985 604.482 399.581 604.38 401 604.976C401.891 605.79 402.382 606.351 402.624 607.564C403.547 612.197 403.71 617.042 404.282 621.733C405.657 633.012 407.144 644.156 409.823 655.212C403.983 657.09 397.861 657.903 391.813 658.799L382.5 660.113C381.24 659.409 381.253 659.089 380.648 657.75L389.215 628.912C391.533 621.094 393.075 611.563 397.531 604.75Z"/>
	<path fill="#F4883B" transform="scale(0.416202 0.416202)" d="M395.137 621.725L401.756 653.036C400.743 653.889 395.78 654.127 394.253 654.335L390.25 654.692C389.84 654.314 389.792 654.315 389.466 653.75C388.765 652.533 388.632 650.581 388.495 649.203C387.613 640.394 392.427 630.089 395.137 621.725Z"/>
	<path fill="#B8C7B5" transform="scale(0.416202 0.416202)" d="M540.59 513.199C544.371 512.874 548.524 513.195 552.255 513.883C574.433 517.972 586.756 535.982 598.444 553.394L598.225 553.965C597.296 555.643 595.615 557.413 594.401 558.93C589.397 565.185 581.589 573.139 573.25 574.422C563.973 575.849 556.927 570.316 551.53 563.503C550.317 561.972 548.796 559.487 547.147 558.482C545.415 557.426 543.22 556.978 541.221 557.379C536.287 558.367 532.13 562.748 529.579 566.889C526.317 572.185 526.647 578.136 529.364 583.548C534.254 593.293 544.074 601.139 551.635 608.867C567.238 624.815 582.23 643.554 590.224 664.568C591.328 667.472 592.868 671.024 593.333 674.071C593.642 676.094 590.4 681.268 589.366 683.149C583.525 693.779 577.8 704.477 569.874 713.75C555.9 730.099 535.762 745.898 513.625 747.526C507.432 748.004 500.496 748.138 494.407 746.736L493.5 746.521L482.227 742.956C473.616 739.319 465.616 733.466 462.133 724.523C461.692 723.392 462.936 721.166 463.471 720C467.571 711.068 472.726 702.45 477.265 693.716L488.15 670.288C495.495 678.506 501.517 685.453 512.355 688.743C520.592 686.96 527.177 683.098 532.269 676.303C536.071 671.228 538.741 664.999 537.705 658.558L537.563 657.75C536.842 653.403 534.889 650.114 532.118 646.749C528.766 642.678 524.358 639.223 520.537 635.586L502.834 617.756C488.36 602.308 476.399 585.03 464.302 567.733L481.3 543.507C496.079 526.113 517.936 515.061 540.59 513.199Z"/>
	<path fill="#B8C7B5" transform="scale(0.416202 0.416202)" d="M497.829 259.196C499.153 259.014 499.962 259.097 501.25 259.45C502.113 260.336 502.666 260.75 502.932 262.006C503.368 264.07 503.048 266.749 503.046 268.891C503.042 272.518 503.256 276.138 503.588 279.75C504.781 292.714 507.856 305.893 510.104 318.747C516.901 357.603 524.875 396.676 535.89 434.567C539.883 448.303 543.939 461.905 549.04 475.285L513.75 478.509L506.42 479.277C505.97 479.325 504.34 479.642 503.993 479.537C503.629 479.427 503.51 478.761 503.443 478.505L501.561 470.603C500.174 464.745 493.435 431.888 490.51 430.084C486.699 427.734 466.066 431.59 461 432.454C460.04 432.618 458.869 432.703 458.033 433.235C454.562 435.443 453.621 445.896 452.914 449.813L444.735 486.477L393.363 491.633L462.325 264.642L497.829 259.196Z"/>
	<path transform="scale(0.416202 0.416202)" d="M475.074 345.25C476.189 345.066 476.248 345.041 477.25 345.55C478.719 347.577 479.308 350.206 479.97 352.594L483.136 366.281C484.478 373.699 486.463 382.121 486.579 389.635C486.601 391.12 486.636 392.371 485.75 393.65C482.317 395.387 477.422 395.291 473.625 395.496L468.25 395.64C465.611 395.68 463.178 395.937 461.193 394C461.864 385.495 464.73 377.092 466.895 368.862C468.739 361.855 470.083 350.625 475.074 345.25Z"/>
	<path fill="#10909A" transform="scale(0.416202 0.416202)" d="M475.497 352.545L482.762 390.971L472.429 391.579L465.382 391.993L475.497 352.545Z"/>
	<path fill="#B8C7B5" transform="scale(0.416202 0.416202)" d="M679.331 489.69C683.042 489.229 687.439 489.736 691.059 490.679L692 490.93C696.178 492.02 700.201 493.698 703.75 496.181C719.207 506.995 726.51 523.345 729.599 541.465C732.832 560.427 731.867 580.643 729.682 599.676C726.64 626.179 721.329 651.511 710.425 676.002C707.764 681.98 704.889 688.454 701.035 693.751C689.056 710.215 671.563 717.301 652.099 720.518C639.076 720.469 629.322 718.387 618.988 710.249C606.184 700.168 601.163 682.643 599.273 667.132C596.846 647.22 598.98 628.177 602.178 608.517C607.605 575.154 616.529 540.199 637.84 513.129C649.066 498.868 661.506 491.842 679.331 489.69Z"/>
	<path transform="scale(0.416202 0.416202)" d="M675.643 548.75C677.126 548.36 679.234 548.288 680.72 548.681C683.303 549.364 685.388 551.845 686.75 554.008C694.227 565.884 691.715 583.001 690.539 596.25C689.326 609.916 687.371 623.383 684.016 636.695C679.683 653.891 671.967 671.426 656.209 680.839C654.962 681.086 653.365 681.519 652.11 681.226C649.212 680.551 646.599 677.364 645.181 674.949C640.816 667.517 640.469 658.259 640.482 649.896C640.511 631.19 643.652 612.802 648.699 594.819C653.41 578.035 659.495 557.81 675.643 548.75Z"/>
	<path fill="#F4883B" transform="scale(0.416202 0.416202)" d="M671.383 558.25C671.961 558.329 672.609 558.583 673.172 558.75C675.944 561.366 677.113 564.971 677.985 568.588C681.888 584.768 679.026 602.428 676.644 618.664C674.647 632.276 672.123 645.491 667.416 658.456C665.847 662.779 664.261 667.438 661.767 671.334C659.656 674.631 657.583 676.029 653.75 676.85L652.827 676.194C652.793 673.931 654.331 670.866 655.062 668.68L660.541 651.813C665.276 635.623 669.195 618.299 669.492 601.38C669.694 589.832 669.861 579.391 661.401 570.611C663.685 566.186 666.691 560.459 671.383 558.25Z"/>
	<path fill="#F4883B" transform="scale(0.416202 0.416202)" d="M660.716 571.912C662.06 573.573 663.492 575.255 664.398 577.204C668.859 586.81 667.875 598.603 666.823 608.87C664.51 631.436 658.831 653.971 650.75 675.155L650.007 675.374C648.616 674.523 647.738 673.222 647.077 671.75C643.593 663.999 643.777 653.41 644.202 645.109C645.467 620.371 650.906 594.661 660.716 571.912Z"/>
	<path fill="#B8C7B5" transform="scale(0.416202 0.416202)" d="M682.407 239.609C690.147 237.938 714.045 233.29 720.443 237.128C721.65 237.851 722.279 238.892 722.518 240.25C724.011 248.733 723.044 257.594 722.25 266.105L720.362 287.027L714.111 350.096C711.433 373.15 707.602 395.588 708.474 418.88C708.671 424.131 709.146 429.446 709.919 434.645C710.837 440.823 713.332 447.753 711.853 453.963C708.855 457.642 685.819 461.075 680.11 461.666C675.252 462.169 670.323 462.507 665.438 462.496C663.54 462.491 661.545 462.63 659.72 462.078C650.629 448.029 643.986 431.398 637.119 416.152L617.458 372.544C614.75 366.137 612.741 359.173 609.75 352.937C609.091 351.563 608.569 350.781 607.25 350.083L605.79 350.75C605.029 353.308 605.203 356.455 605.072 359.118L604.31 375.586L601.226 435.698L602.016 466.337L555.9 470.622L586.944 254.941L603.869 251.73C608.919 250.779 620.895 247.123 625.428 250.237C627.547 251.693 627.775 254.695 628.458 257.011L632.189 267.853L642.091 291.429L657.887 327.548C659.584 331.076 661.026 335.682 663.139 338.906C663.944 340.137 665.178 340.174 666.5 340.427C668.109 339.057 668.25 338.43 668.805 336.382C670.524 330.041 671.458 323.243 672.75 316.785L681.843 268.062L684.931 250.532C685.399 247.9 686.277 244.879 686.379 242.25C686.408 241.485 686.36 241.357 686.25 240.699C684.909 239.824 684.044 240.029 682.465 240.006L682.407 239.609Z"/>
	<path fill="#B8C7B5" transform="scale(0.416202 0.416202)" d="M900.389 454.663C902.091 454.311 903.766 454.115 905.25 455.044C906.406 460.078 905.365 466.71 904.771 471.841L900.551 503.172L891.101 586.572L886.511 666.992C872.784 669.403 859.524 672.212 845.511 672.574C844.121 672.609 843.043 672.968 842.386 671.626C830.233 646.801 817.331 623.722 800.881 601.459C797.398 596.745 794.084 591.502 789.772 587.515C788.529 586.365 787.68 585.792 785.982 585.868C785.571 586.302 785 586.627 784.75 587.17C784.306 588.135 784.57 590.616 784.567 591.738L784.551 603.963L784.593 660.111L785.55 685.816L730.496 695.01C730.33 676.357 733.943 656.999 736.244 638.483L751.159 526.334C752.333 517.506 753.066 508.404 753.327 499.511C753.467 494.731 752.732 489.807 753.636 485.097C757.086 481.858 762.098 481.482 766.508 480.354C775.497 478.057 783.864 475.966 793.135 474.956C798.471 478.49 803.051 488.307 806.232 493.985L834.63 549.749L840.011 561C841.155 563.437 842.113 566.303 844.2 568.101C844.708 568.537 845.355 568.481 846 568.361C847.362 568.107 848.818 567.202 849.327 565.884C850.371 563.186 850.414 559.77 850.608 556.897L851.603 542.068L856.22 492.801L857.9 475.181C858.203 471.709 858.017 466.161 860.059 463.262C860.974 461.964 862.6 461.232 864.062 460.75C867.886 459.488 872.371 459.215 876.374 458.577L900.389 454.663Z"/>
	<path fill="#B8C7B5" transform="scale(0.416202 0.416202)" d="M345.475 534.679C348.137 534.221 350.988 534.32 353.689 534.238L315.38 763.35C310.88 765.76 304.248 766.202 299.267 767.342L261.329 775.832L281.561 652.91C279.841 654.167 278.165 655.43 276.728 657.017C272.76 661.398 269.515 667.226 266.115 672.124L243.624 704.24L235.099 682.967C232.213 675.354 229.717 667.579 226.425 660.125C225.001 656.898 223.596 653.455 221.293 650.75C219.908 650.412 219.191 650.517 217.836 650.806C217.122 651.446 216.791 651.855 216.504 652.797C214.997 657.741 214.979 663.428 214.448 668.577L211.845 692.12L201.473 772.288C195.351 774.563 188.585 775.196 182.218 776.613L144.544 785.438L185.695 597.269L233.315 585.052L242.894 614.611C243.884 617.719 245.234 624.782 247.382 627.111C247.745 627.504 248.294 627.67 248.75 627.95C250.34 627.371 250.736 626.989 251.8 625.673L272.556 597.409L317.068 538.216L345.475 534.679Z"/>
	<path fill="#10909A" transform="scale(0.416202 0.416202)" d="M220.114 757.493L235.511 757.498L236.229 801.188C236.351 807.06 235.523 815.083 237.248 820.595L237.474 821.25C237.651 821.777 237.799 822.266 238.096 822.743C239.024 824.235 240.653 826.319 242.436 826.747L243 826.867C247.174 827.959 250.442 826.867 254.555 825.927L268.203 822.66L286.37 818.608L324.241 847.134C340.162 858.146 357.43 867.786 374.578 876.737C435.969 908.784 504.672 929.298 573.739 935.002C604.087 937.508 634.386 936.887 664.678 934.021C680.314 932.542 696.394 929.813 711.757 926.553C718.149 925.196 724.385 923.248 730.828 922.074L672.033 949.001C663.52 952.589 654.418 955.135 645.594 957.862C585.612 976.395 521.213 981.566 458.797 975.845C443.173 974.413 427.366 971.687 412 968.526C342.029 954.133 277.333 923.78 221.251 879.581C209.947 870.671 198.565 861.565 188.282 851.474C181.054 844.382 174.463 836.762 167.987 828.99L211.873 817.263L220.114 757.493Z"/>
	<path fill="#F4883B" transform="scale(0.416202 0.416202)" d="M709.479 687.67C709.209 692.725 708.263 697.877 707.615 702.9L705.137 721.852C704.195 727.111 701.996 732.778 702.01 738.103C702.013 739.484 702.264 739.457 703.25 740.437C709.881 740.886 717.781 738.592 724.472 737.668L776.867 730.032L756.372 757.096C741.47 774.95 723.537 790.327 704.57 803.717C654.069 839.367 593.303 862.033 531.697 867.535C498.223 870.525 463.66 868.673 430.822 861.313C405.89 855.725 381.841 847.032 358.725 836.252C344.234 829.494 329.041 822.074 316.72 811.746L358.186 802.217C361.378 796.361 365.217 790.836 367.569 784.551C364.703 787.929 362.227 791.699 359.454 795.17C358.898 795.867 357.851 797.581 357.14 798.039C355.768 798.923 352.831 799.427 351.182 799.832L331.826 803.896L280.189 816.421C275.642 817.465 246.161 825.073 244.202 823.815C242.743 822.878 240.884 820.951 240.435 819.236L240.297 818.632C239.409 815.035 239.531 811.427 239.502 807.749L239.323 793.245L238.501 757.066L252.054 755.335L249.066 805.5C249.727 807.088 250.197 807.447 251.583 808.334C253.525 808.569 255.201 808.491 257.124 808.129L308.958 796.345L339.681 789.646C342.395 789.038 346.605 788.691 349.023 787.476C350.123 786.924 350.734 784.671 351.126 783.5C353.061 777.716 354.31 771.505 355.843 765.589C359.406 751.838 363.014 737.779 368.189 724.548C369.267 731.239 369.412 738.172 370.217 744.923L375.811 782.498C376.764 788.296 377.025 794.053 379.025 799.624C381.509 799.539 383.846 799.263 386.284 798.782L429.944 788.901L448.841 784.867C452.36 784.134 456.447 783.641 459.703 782.115C462.601 780.757 463.942 778.408 465.663 775.846C477.156 781.906 491.209 782.405 503.83 780.271C524.64 776.754 544.631 764.24 559.082 749.087C567.302 740.467 574.153 730.722 581.028 721.028C586.522 730.279 593.727 739.849 602.953 745.664C615.262 753.422 629.722 756.512 644.004 753.186C659.936 749.475 671.713 740.158 682.666 728.364C687.669 722.979 692.587 717.129 696.486 710.879L709.479 687.67Z"/>
	<path fill="#B8C7B5" transform="scale(0.416202 0.416202)" d="M262.429 239.698C267.146 238.925 272.571 239.275 277.336 239.34C304.192 239.71 330.246 246.616 352.975 261.125C376.613 276.216 391.017 299.188 396.98 326.327C400.039 340.244 400.032 355.118 398.825 369.248C396.016 402.133 386.368 433.232 368.459 461.065C343.568 499.748 301.077 527.38 258.804 543.871L210.312 560.165C193.064 565.927 175.818 573.589 158.059 577.453L214.438 365.209L231.742 296.192C242.395 294.632 256.385 290.99 266.906 293.959C268.034 294.277 274.76 296.863 275.164 298.085C275.328 298.583 274.775 301.153 274.684 301.808C273.728 308.75 271.92 315.584 270.384 322.411L241.478 440.532L231.504 480.077L226.315 500.656C225.939 502.466 225.543 503.1 226.492 504.75C230.823 505.848 247.489 498.358 251.949 496.129C284.264 479.975 309.269 448.094 320.641 414.17C331.292 382.401 336.883 344.465 321.267 313.436C314.731 300.449 302.504 289.949 288.694 285.401C279.241 282.287 269.679 282.306 259.869 283.262C239.595 285.237 222.212 291.273 204.145 300.464L216.245 244.669L262.429 239.698Z"/>
	<path fill="#10909A" transform="scale(0.416202 0.416202)" d="M198.197 166.25C197.694 169.575 195.049 173.564 193.566 176.661C188.631 186.968 183.058 197.265 178.76 207.844C166.754 237.394 157.909 267.843 152.58 299.306C145.858 338.996 144.804 380.201 148.631 420.25L152.575 457C153.013 460.431 154.836 464.815 154.687 468.109C154.428 473.826 151.959 480.547 150.511 486.156L138.977 529.206C132.45 553.939 127.814 578.862 120.101 603.326C124.927 608.211 129.528 612.728 134.91 616.998L149.225 614.235L123.685 734.88L118.982 756.985C118.668 758.442 118.184 762.625 117.341 763.482L104.91 742.757C59.6579 656.716 36.2671 559.025 47.7378 461.734C52.0184 425.428 59.8318 390 72.0182 355.5C90.0658 304.406 117.837 257.61 151.722 215.512C161.431 203.45 171.866 191.956 182.742 180.936C187.677 175.936 192.67 170.599 198.197 166.25Z"/>
	<path fill="#F4883B" transform="scale(0.416202 0.416202)" d="M480.023 154.787C488.963 153.931 498.41 154.301 507.406 154.423C580.953 155.419 655.693 181.969 714.557 225.901C772.153 268.885 818.488 330.113 839.97 399.117C846.279 419.384 849.917 440.364 852.962 461.332C845.279 465.258 837.78 468.943 830.677 473.873L827.728 526.732C819.18 511.471 812.858 494.629 802.671 480.327C800.734 477.608 797.777 473.214 794.549 472.083C789.162 470.196 779.144 474.057 773.729 475.313C766.085 477.086 757.826 477.931 750.79 481.575C749.04 482.482 747.287 483.479 745.866 484.86C743.996 486.678 742.874 488.792 740.451 490.01L740.063 490.188L740.25 490.599L742.119 490.19L742.976 490.75C743.685 496.506 743.745 502.78 743.376 508.568C742.237 526.391 739.044 544.006 736.866 561.716L735.456 575C735.281 576.762 735.348 579.422 734.5 580.938C733.828 578.959 734.275 576.399 734.318 574.31L734.318 560.699C734.029 551.487 733.347 542.254 731.319 533.243C727.828 517.728 719.996 502.527 706.14 493.867C693.597 486.028 680.212 484.404 665.891 487.963C661.658 489.015 657.37 491.418 653.5 493.384C629.397 505.628 613.37 526.353 599.74 548.999C594.844 541.25 590.152 533.716 583.544 527.274C572.939 516.935 559.096 509.16 543.941 509.508C518.965 510.082 492.597 523.684 476.931 543.126C470.427 551.196 465.43 561.138 458.281 568.528L457.663 569.162C457.684 569.953 457.712 570.716 457.584 571.5C456.985 575.15 452.604 583.755 449.516 585.807L447.75 584.611C445.523 586.441 444.659 590.418 444.037 593.144C445.982 598.715 448.855 603.513 451.914 608.524C460.437 622.482 471.317 634.327 482.661 646.01C487.348 650.837 491.971 655.955 496.967 660.455L512.603 673.265C512.661 676.964 511.818 680.511 511.087 684.116C503.893 681.565 499.533 676.81 494.311 671.554C492.099 669.327 490.001 666.862 487.29 665.25C483.679 665.661 478.806 673.648 476.635 676.632L463.436 694.033C461.512 696.566 459.362 700.303 456.908 702.272C447.23 659.54 436.813 616.721 430.14 573.402C428.892 565.304 427.941 557.092 427.461 548.909C427.106 542.864 427.255 536.712 426.371 530.721C419.832 529.32 413.053 530.368 406.5 531.183C401.42 531.815 396.193 532.324 391.223 533.588C384.175 535.38 379.904 539.762 375.266 545.064C373.749 546.799 372.152 548.898 370.372 550.367C369.158 551.37 367.823 551.943 366.923 553.291C364.237 557.311 362.782 562.991 361.156 567.519L350.861 595.278C348.416 602.12 346.935 609.673 343.155 615.936L352.851 558.982L356.005 541.5C356.55 538.698 357.671 535.52 357.327 532.669C356.132 531.783 354.847 531.246 353.348 531.107C349.435 530.747 344.76 531.412 340.847 531.814L320.614 533.97L335.394 518.649L369.976 472.793C368.621 481.262 364.879 489.697 364.145 498.182C363.759 502.642 366.428 519.162 369.109 522.373C371.439 523.213 373.775 522.867 376.203 522.679L392.281 520.757L428.911 517.395L442.32 497.754C444.018 495.419 446.33 493.401 447.847 490.983C448.683 489.649 449.083 488.406 449.355 486.865L454.863 461.062C457.349 466.02 458.704 472.78 460.412 478.144L472.399 515.885C475.269 514.355 478.314 512.027 481.526 511.431L482.25 511.31C492.313 509.558 502.995 509.341 513.187 508.184L562.141 501.805C570.625 500.796 579.519 500.607 587.844 498.772C589.295 498.452 590.653 497.879 591.75 496.853C593.834 494.904 595.065 491.646 596.312 489.127L603.123 475.645C604.075 473.765 606.014 470.964 606.493 468.983C606.743 467.951 606.224 466.01 606.089 464.962C605.778 462.562 605.618 460.136 605.575 457.716L605.61 427.499C611.959 444.702 617.951 461.905 626.771 478.054C630.111 484.172 632.635 489.141 637.825 493.958L700.071 478.019C702.65 475.938 704.551 472.436 706.457 469.718C709.946 464.744 714.292 460.074 715.708 453.999C716.524 450.496 715.924 446.649 715.425 443.141L713.105 427.28C712.276 419.03 711.926 410.693 712.246 402.406C712.867 386.324 715.382 370.471 717.17 354.5L724.171 284L725.56 266.61L726.725 247.903C726.812 243.992 727.061 239.78 724.756 236.42C722.826 233.607 719.657 232.817 716.474 232.218C706.981 230.432 696.624 233.61 687.323 235.353C680.091 236.708 670.012 237.694 663.902 242.114C661.791 243.641 660.401 245.843 659.461 248.242C656.747 255.175 656.191 263.309 655.133 270.638L650.75 300.717C648.263 297.35 646.589 291.376 644.921 287.393L633.051 258.707C631.978 255.711 631.923 251.649 630.481 248.988C629.644 247.445 627.802 246.359 626.165 245.87C623.815 245.169 620.844 245.181 618.393 245.38C611.568 245.933 604.086 247.95 597.301 249.239L583.656 251.763C576.355 252.922 568.312 253.961 561.75 257.621C558.463 259.455 556.238 261.89 554.997 265.449C553.788 268.914 553.214 272.796 552.546 276.4L548.748 302.05L538.76 368.603C536.859 381.103 535.687 393.797 532.481 406.054L509.056 291.106C507.995 284.915 507.099 278.501 506.922 272.21C506.85 269.643 506.935 267.116 507.14 264.557C507.252 263.162 507.668 261.137 507.35 259.776C506.984 258.212 504.957 256.55 503.55 255.939C496.935 253.069 451.644 262.523 442.927 265.893C438.933 267.437 435.157 269.698 432.869 273.431C428.195 281.055 426.54 291.716 423.948 300.319L411.166 339.951C408.747 347.302 406.72 355.192 403.603 362.26C403.546 356.05 403.851 349.606 403.313 343.428C401.295 320.237 394.239 297.354 379.378 279.087C364.205 260.437 340.446 246.865 317.387 240.696C307.393 238.022 297.147 236.683 286.883 235.622C304.038 218.707 323.31 204.062 344.426 192.38C385.471 169.674 433.504 157.97 480.023 154.787Z"/>
	<path transform="scale(0.416202 0.416202)" d="M418.664 191.429C423.968 197.388 423.873 206.068 429.603 211.501C432.677 214.415 437.012 215.534 440.967 216.688C443.51 217.43 446.441 217.981 448.085 220.25C447.233 222.191 444.91 223.04 443.053 223.884C438.595 225.91 431.598 227.86 428.109 231.191C424.125 234.995 422.737 240.881 420.706 245.816C419.621 248.455 418.761 250.953 416.25 252.538L414.75 252.134C412.899 250.267 412.155 247.177 411.273 244.752C408.889 238.189 405.941 229.552 399.906 225.411C396.468 223.052 392.353 222.087 388.681 220.185C386.77 219.196 385.297 218.37 384.637 216.25C387.569 212.377 397.226 214.3 401.978 212.993C412.479 210.106 414.081 199.781 418.664 191.429Z"/>
	<path fill="#FEFEFE" transform="scale(0.416202 0.416202)" d="M418.652 200.715L422.081 207.573C426.228 215.471 433.112 217.977 441.186 220.475C437.68 222.35 433.787 223.443 430.226 225.204C424.713 227.93 421.982 233.796 419.542 239.119L417.277 245.058L414.78 234.984C412.491 226.26 408.129 222.152 400.598 217.731C410.533 214.008 413.898 210.122 418.652 200.715Z"/>
	<path transform="scale(0.416202 0.416202)" d="M772.744 377.25C774.338 377.972 775.479 381.353 776.183 382.838C778.758 388.263 781.539 397.002 786.14 400.855C789.848 403.96 795.308 405.405 799.986 406.243C804.092 406.979 809.49 406.519 812.372 409.75C812.026 410.275 811.982 410.417 811.409 410.856C809.929 411.991 807.139 412.741 805.356 413.412C800.311 415.308 792.916 417.303 788.635 420.46C786.788 421.822 785.582 424.87 784.546 426.876C782.335 431.158 780.241 435.567 777.75 439.692C776.04 442.524 774.051 444.908 771.756 447.279L760.75 429.545C759.55 427.631 758.354 424.693 756.91 423.109C755.743 421.829 752.998 421.147 751.353 420.698C745.251 419.031 736.535 418.351 731.939 413.75C731.978 413.417 731.872 413.031 732.056 412.75C732.245 412.462 735.338 411.631 735.74 411.51L747.487 408.198C749.078 407.773 752.42 407.088 753.713 406.052C755.207 404.855 756.754 401.418 757.736 399.696C762.059 392.117 766.111 383.082 772.744 377.25Z"/>
	<path fill="#FEFEFE" transform="scale(0.416202 0.416202)" d="M773.046 384.201L778.878 396.19C780.615 399.024 782.687 402.411 785.363 404.452C789.389 407.524 795.858 408.555 800.698 409.728C796.815 412.035 792.522 413.596 788.75 416.086C781.263 421.029 779.644 429.978 774.75 436.887L773.75 436.028C771.021 430.115 768.678 423.474 764.611 418.325C761.072 413.844 749.411 413.321 743.882 412.696L758.761 408.014C760.71 407.352 764.239 406.009 765.124 404.071L773.046 384.201Z"/>
	<path fill="#4AB1AC" transform="scale(0.416202 0.416202)" d="M864.214 713.787L869.2 713.275C875.802 699.714 881.233 684.956 889.22 672.18C889.725 671.372 890.104 670.672 890.369 669.75C891.006 667.539 890.802 664.748 890.756 662.453L890.604 648.782L893.406 603.152L903.21 509.53L907.914 472.158C908.572 466.784 910.459 460.351 909.462 455.02C909.25 453.89 908.441 452.464 907.482 451.817C902.545 448.486 862.878 457.334 856.049 459.333C853.473 439.22 849.666 419.334 843.738 399.922C822.769 331.254 779.48 271.353 722.811 227.554C672.219 188.452 614.277 163.898 551 154.474C520.382 149.914 489.179 148.919 458.427 152.917C405.004 159.864 356.034 177.867 312.124 209.215C306.697 213.089 301.298 217.189 296.25 221.543L285.644 231.136C284.586 232.158 282.416 234.911 281.232 235.488C280.711 235.741 278.204 235.501 277.533 235.505L266.25 235.675C254.063 236.08 241.913 237.378 229.811 238.787C223.926 239.472 217.124 239.495 211.77 242.211C208.386 243.927 205.523 247.096 202.835 249.715L191.5 260.538C186.416 265.222 181.009 269.391 175.307 273.29L167.731 311.64C166.325 318.074 164.481 324.573 163.595 331.095C163.296 333.304 162.434 336.938 163.848 338.797C169.037 345.614 178.047 348.018 185.647 351.08L156.79 460.167L150.849 396.957C147.527 328.008 158.141 256.334 188.71 193.956L199.208 172.364C201.28 168.123 203.295 163.002 206.404 159.413C209.531 155.803 213.754 153.002 217.518 150.084L234.077 137.158C251.001 124.025 269.25 112.714 288.019 102.424C348.553 69.2354 416.298 49.744 485.301 46.6205C505.799 45.6927 526.676 45.6816 547.125 47.3548C628.338 53.9998 708.147 82.1405 775.163 128.555C790.899 139.453 806.688 151.15 820.795 164.134C835.482 177.651 849.73 191.56 862.789 206.683C931.407 286.148 972.118 386.518 976.484 491.63C981.521 612.911 937.306 739.032 854.69 828.348C829.068 856.047 800.335 879.975 768.862 900.739C762.271 905.087 755.365 910.296 748.044 913.332C742.644 915.571 735.986 916.657 730.281 918.155C697.803 926.685 665.25 931.35 631.697 932.643C530.898 936.528 430.502 908.745 344.661 856.054C326.076 844.645 306.843 832.285 290.796 817.435L310.828 812.749C327.262 823.612 343.937 833.632 361.797 841.995C402.755 861.175 449.466 872.142 494.653 872.984C519.424 873.446 544.938 870.684 569.195 865.731C641.22 851.024 712.74 816.248 761.241 759.716C766.367 760.245 772.395 760.318 777.502 759.663C802.677 756.432 826.311 744.229 846.854 729.853C851.758 726.422 857.652 722.41 861.282 717.657L864.214 713.787Z"/>
</svg>
